HIERARCHY
ROOT Hips
{
	OFFSET 0.000000 0.000000 0.000000
	CHANNELS 6 Xposition Yposition Zposition Zrotation Yrotation Xrotation 
	JOINT LHipJoint
	{
		OFFSET 0.000000 0.000000 0.000000
		CHANNELS 3 Zrotation Yrotation Xrotation
		JOINT LeftUpLeg
		{
			OFFSET 1.363060 -1.794630 0.839290
			CHANNELS 3 Zrotation Yrotation Xrotation
			JOINT LeftLeg
			{
				OFFSET 2.448110 -6.726130 0.000000
				CHANNELS 3 Zrotation Yrotation Xrotation
				JOINT LeftFoot
				{
					OFFSET 2.562200 -7.039590 0.000000
					CHANNELS 3 Zrotation Yrotation Xrotation
					JOINT LeftToeBase
					{
						OFFSET 0.157640 -0.433110 2.322550
						CHANNELS 3 Zrotation Yrotation Xrotation
						End Site
						{
							OFFSET 0.000000 0.000000 0.000000
						}
					}
				}
			}
		}
	}
	JOINT RHipJoint
	{
		OFFSET 0.000000 0.000000 0.000000
		CHANNELS 3 Zrotation Yrotation Xrotation
		JOINT RightUpLeg
		{
			OFFSET -1.305520 -1.794630 0.839290
			CHANNELS 3 Zrotation Yrotation Xrotation
			JOINT RightLeg
			{
				OFFSET -2.542530 -6.985550 0.000000
				CHANNELS 3 Zrotation Yrotation Xrotation
				JOINT RightFoot
				{
					OFFSET -2.568260 -7.056230 0.000000
					CHANNELS 3 Zrotation Yrotation Xrotation
					JOINT RightToeBase
					{
						OFFSET -0.164730 -0.452590 2.363150
						CHANNELS 3 Zrotation Yrotation Xrotation
						End Site
						{
							OFFSET 0.000000 0.000000 0.000000
						}
					}
				}
			}
		}
	}
}
MOTION
Frames: 16
Frame Time: 0.008333
-12.649843 15.813251 -0.168963 -142.553077 89.706918 -115.428839 -12.734618 1.279476 -5.148097 -6.962473 13.274208 -26.870515 -1.088222 3.730711 56.874474 0.135087 -1.941349 -7.601526 0.061700 0.000000 -77.604500 7.091474 0.513649 -0.590108 17.505807 3.414376 -66.710067 2.088485 -4.449658 48.633670 -1.417170 -3.214108 -11.366862 -0.058600 -0.000000 -1.284500
-12.498317 15.810780 -0.152660 -140.021453 89.781909 -113.010534 -12.791174 1.329448 -5.094436 -6.671896 13.211978 -26.337816 -0.998966 3.718814 56.905934 0.134598 -2.004964 -6.589606 0.031600 0.000000 -77.984800 7.088185 0.510572 -0.678237 17.532986 3.352042 -66.312427 2.037738 -4.483701 49.545112 -1.510649 -3.341420 -12.592950 -179.920400 -0.000000 -0.362800
-12.347528 15.809534 -0.135012 -138.285202 89.863632 -111.368274 -12.837393 1.383101 -5.033799 -6.417122 13.109987 -25.850217 -0.908657 3.708496 56.949808 0.140561 -2.044717 -5.541973 -0.005400 -0.000000 -78.284300 7.093904 0.512677 -0.758124 17.537491 3.288892 -65.882044 1.995559 -4.506541 50.349722 -1.601998 -3.461950 -13.778424 -179.780400 -0.000000 -1.519000
-12.197517 15.809367 -0.116221 -137.623063 89.953123 -110.771821 -12.874285 1.441216 -4.963458 -6.202012 12.961338 -25.428107 -0.816788 3.701902 57.019417 0.152905 -2.064490 -4.443641 -0.049200 0.000000 -78.468300 7.109416 0.523846 -0.825144 17.506208 3.241688 -65.440041 1.953927 -4.518840 51.065857 -1.689423 -3.586643 -14.863291 -179.646000 -0.000000 -2.041000
-12.048669 15.810178 -0.096492 41.688160 89.947326 68.496489 -12.900724 1.505638 -4.886029 -6.026513 12.769441 -25.070335 -0.722748 3.701585 57.124337 0.171437 -2.073923 -3.266500 -0.100501 -0.000000 -78.480600 7.137672 0.550030 -0.884763 17.436183 3.205421 -64.993208 1.909250 -4.523067 51.724697 -1.770627 -3.710256 -15.844214 -179.518600 -0.000001 -2.159000
-11.901263 15.811964 -0.076207 39.445437 89.841295 66.232193 -12.914837 1.576610 -4.803594 -5.887141 12.540160 -24.783990 -0.626353 3.709454 57.276922 0.196582 -2.078412 -1.995068 -0.160299 -0.000000 -78.240500 7.181033 0.594175 -0.939189 17.331982 3.180729 -64.549457 1.859743 -4.521056 52.344897 -1.844793 -3.833273 -16.718130 -179.399500 0.000000 -2.008300
-11.755590 15.814704 -0.055683 35.509902 89.736325 62.294674 -12.911978 1.653328 -4.719082 -5.776241 12.282612 -24.575644 -0.527922 3.726408 57.489197 0.229088 -2.079082 -0.627588 -0.229400 -0.000000 -77.657400 7.243300 0.657480 -0.990268 17.205034 3.166275 -64.113748 1.806281 -4.514996 52.936961 -1.912177 -3.955919 -17.495565 -179.288600 -0.000000 -1.733100
-11.611829 15.818371 -0.035294 29.987478 89.647916 56.790726 -12.886424 1.731518 -4.634995 -5.682533 12.006373 -24.455323 -0.427264 3.750804 57.774500 0.269971 -2.068434 0.817619 -0.306200 0.000001 -76.641900 7.327592 0.735715 -1.037084 17.073306 3.161237 -63.690819 1.752408 -4.507882 53.499693 -1.974385 -4.080472 -18.193973 -179.184300 0.000000 -1.447800
-11.470299 15.822986 -0.015203 23.209065 89.589795 50.042495 -12.831571 1.804204 -4.558043 -5.596962 11.727545 -24.417864 -0.323675 3.778661 58.144701 0.319378 -2.037611 2.304546 -0.386900 0.000000 -75.029100 7.437886 0.821545 -1.082350 16.950665 3.150966 -63.276184 1.703070 -4.504963 54.033000 -2.031775 -4.201265 -18.839759 -179.084600 -0.000000 -1.248000
-11.331069 15.828502 0.004349 16.063090 89.580371 42.941116 -12.755125 1.857302 -4.488447 -5.511002 11.451093 -24.474817 -0.214858 3.802956 58.609096 0.378049 -1.957884 3.776239 -0.462200 -0.000000 -72.831000 7.562820 0.896316 -1.121926 16.852805 3.131037 -62.877221 1.663533 -4.509516 54.522305 -2.087308 -4.322021 -19.453568 -178.987100 0.000001 -1.171000
-11.194253 15.834902 0.023314 9.478938 89.618389 36.411599 -12.674101 1.881627 -4.428854 -5.426319 11.190394 -24.624824 -0.101189 3.821016 59.171184 0.445568 -1.799276 5.161929 -0.518300 -0.000000 -70.000300 7.684926 0.946450 -1.157414 16.783944 3.090787 -62.491073 1.636265 -4.521297 54.960726 -2.141967 -4.438003 -20.055739 -178.889700 0.000000 -1.228500
-11.059925 15.842088 0.041765 4.173271 89.685150 31.168537 -12.607424 1.877179 -4.380223 -5.348411 10.961185 -24.870128 0.013325 3.836802 59.827548 0.521322 -1.525204 6.385148 -0.538200 0.000000 -66.594501 7.786644 0.968651 -1.191291 16.746714 3.028549 -62.111866 1.620924 -4.534865 55.341804 -2.196414 -4.544804 -20.658328 -178.791100 -0.000000 -1.401500
-10.928089 15.849975 0.059794 0.435107 89.755993 27.500408 -12.563989 1.851301 -4.343286 -5.280901 10.778705 -25.212620 0.123183 3.857772 60.570091 0.604427 -1.100563 7.373968 -0.504600 0.000000 -62.743500 7.860559 0.969225 -1.225736 16.743589 2.949074 -61.731595 1.616101 -4.543669 55.660287 -2.250609 -4.637805 -21.265799 -178.691300 0.000001 -1.650500
-10.798731 15.858445 0.077602 -1.848681 89.814383 25.293904 -12.541921 1.811620 -4.318718 -5.224613 10.652056 -25.652199 0.224659 3.889664 61.389783 0.693878 -0.498237 8.066217 -0.404600 0.000000 -58.617800 7.908955 0.956124 -1.261339 16.775763 2.857424 -61.344311 1.620630 -4.543971 55.912345 -2.303830 -4.713418 -21.873800 -178.591300 0.000000 -1.917400
-10.671790 15.867398 0.095332 -2.956631 89.854317 24.270550 -12.535697 1.762324 -4.306376 -5.178979 10.582008 -26.185745 0.316640 3.934657 62.274206 0.789309 0.296171 8.423841 -0.234700 0.000000 -54.486200 7.936958 0.934227 -1.297726 16.842434 2.756697 -60.947616 1.633601 -4.534997 56.097579 -2.354894 -4.768715 -22.473007 -178.493200 -0.000000 -2.147800
-10.547256 15.876774 0.113213 -3.401179 89.880873 23.917236 -12.536240 1.704434 -4.305258 -5.146292 10.559464 -26.805879 0.400235 3.990912 63.208718 0.891230 1.282363 8.434954 -0.002200 0.000000 -50.641800 7.952819 0.905938 -1.333721 16.936427 2.645737 -60.543800 1.654049 -4.519115 56.219786 -2.401797 -4.800904 -23.048100 -178.400600 -0.000000 -2.275700
